HIERARCHY
ROOT Hips
{
    OFFSET 0.000000 0.000000 0.000000
    CHANNELS 6 Xposition Yposition Zposition Zrotation Xrotation Yrotation
    JOINT Spine
    {
        OFFSET -0.000000 0.076824 0.000000
        CHANNELS 3 Zrotation Xrotation Yrotation
        JOINT Spine1
        {
            OFFSET -0.000000 0.205639 0.000000
            CHANNELS 3 Zrotation Xrotation Yrotation
            JOINT Neck
            {
                OFFSET -0.000000 0.204794 0.018618
                CHANNELS 3 Zrotation Xrotation Yrotation
                JOINT Head
                {
                    OFFSET -0.000000 0.131164 -0.018738
                    CHANNELS 3 Zrotation Xrotation Yrotation
                    End Site
                    {
                        OFFSET -0.000000 0.187377 0.000000
                    }
                }
            }
            JOINT LeftShoulder
            {
                OFFSET 0.037892 0.189814 -0.002396
                CHANNELS 3 Zrotation Xrotation Yrotation
                JOINT LeftArm
                {
                    OFFSET 0.104721 0.000000 0.000000
                    CHANNELS 3 Zrotation Xrotation Yrotation
                    JOINT LeftForeArm
                    {
                        OFFSET 0.316555 0.000000 0.000000
                        CHANNELS 3 Zrotation Xrotation Yrotation
                        JOINT LeftHand
                        {
                            OFFSET 0.270628 0.000000 0.000000
                            CHANNELS 3 Zrotation Xrotation Yrotation
                            JOINT LeftHandThumb1
                            {
                                OFFSET 0.023422 -0.014053 0.046844
                                CHANNELS 3 Zrotation Xrotation Yrotation
                                JOINT LeftHandThumb2
                                {
                                    OFFSET 0.028107 0.000000 0.000000
                                    CHANNELS 3 Zrotation Xrotation Yrotation
                                    JOINT LeftHandThumb3
                                    {
                                        OFFSET 0.028107 0.000000 0.000000
                                        CHANNELS 3 Zrotation Xrotation Yrotation
                                        End Site
                                        {
                                            OFFSET 0.026333 0.000000 0.000000
                                        }
                                    }
                                }
                            }
                            JOINT LeftHandIndex1
                            {
                                OFFSET 0.084320 0.000000 0.032791
                                CHANNELS 3 Zrotation Xrotation Yrotation
                                JOINT LeftHandIndex2
                                {
                                    OFFSET 0.046844 0.000000 0.000000
                                    CHANNELS 3 Zrotation Xrotation Yrotation
                                    JOINT LeftHandIndex3
                                    {
                                        OFFSET 0.023422 0.000000 0.000000
                                        CHANNELS 3 Zrotation Xrotation Yrotation
                                        End Site
                                        {
                                            OFFSET 0.021944 0.000000 0.000000
                                        }
                                    }
                                }
                            }
                            JOINT LeftHandMiddle1
                            {
                                OFFSET 0.084320 0.000000 0.010868
                                CHANNELS 3 Zrotation Xrotation Yrotation
                                JOINT LeftHandMiddle2
                                {
                                    OFFSET 0.051529 0.000000 0.000000
                                    CHANNELS 3 Zrotation Xrotation Yrotation
                                    JOINT LeftHandMiddle3
                                    {
                                        OFFSET 0.028107 0.000000 0.000000
                                        CHANNELS 3 Zrotation Xrotation Yrotation
                                        End Site
                                        {
                                            OFFSET 0.026333 0.000000 0.000000
                                        }
                                    }
                                }
                            }
                            JOINT LeftHandRing1
                            {
                                OFFSET 0.079635 0.000000 -0.010868
                                CHANNELS 3 Zrotation Xrotation Yrotation
                                JOINT LeftHandRing2
                                {
                                    OFFSET 0.046844 0.000000 0.000000
                                    CHANNELS 3 Zrotation Xrotation Yrotation
                                    JOINT LeftHandRing3
                                    {
                                        OFFSET 0.023422 0.000000 0.000000
                                        CHANNELS 3 Zrotation Xrotation Yrotation
                                        End Site
                                        {
                                            OFFSET 0.021944 0.000000 0.000000
                                        }
                                    }
                                }
                            }
                            JOINT LeftHandPinky1
                            {
                                OFFSET 0.074951 0.000000 -0.032791
                                CHANNELS 3 Zrotation Xrotation Yrotation
                                JOINT LeftHandPinky2
                                {
                                    OFFSET 0.037475 0.000000 0.000000
                                    CHANNELS 3 Zrotation Xrotation Yrotation
                                    JOINT LeftHandPinky3
                                    {
                                        OFFSET 0.018738 0.000000 0.000000
                                        CHANNELS 3 Zrotation Xrotation Yrotation
                                        End Site
                                        {
                                            OFFSET 0.017555 0.000000 0.000000
                                        }
                                    }
                                }
                            }
                        }
                    }
                }
            }
            JOINT RightShoulder
            {
                OFFSET -0.036963 0.189814 -0.002396
                CHANNELS 3 Zrotation Xrotation Yrotation
                JOINT RightArm
                {
                    OFFSET -0.104721 0.000000 0.000000
                    CHANNELS 3 Zrotation Xrotation Yrotation
                    JOINT RightForeArm
                    {
                        OFFSET -0.316555 0.000000 0.000000
                        CHANNELS 3 Zrotation Xrotation Yrotation
                        JOINT RightHand
                        {
                            OFFSET -0.270628 0.000000 0.000000
                            CHANNELS 3 Zrotation Xrotation Yrotation
                            JOINT RightHandThumb1
                            {
                                OFFSET -0.023422 -0.014053 0.046844
                                CHANNELS 3 Zrotation Xrotation Yrotation
                                JOINT RightHandThumb2
                                {
                                    OFFSET -0.028107 0.000000 0.000000
                                    CHANNELS 3 Zrotation Xrotation Yrotation
                                    JOINT RightHandThumb3
                                    {
                                        OFFSET -0.028107 0.000000 0.000000
                                        CHANNELS 3 Zrotation Xrotation Yrotation
                                        End Site
                                        {
                                            OFFSET -0.026333 0.000000 0.000000
                                        }
                                    }
                                }
                            }
                            JOINT RightHandIndex1
                            {
                                OFFSET -0.084320 0.000000 0.032791
                                CHANNELS 3 Zrotation Xrotation Yrotation
                                JOINT RightHandIndex2
                                {
                                    OFFSET -0.046844 0.000000 0.000000
                                    CHANNELS 3 Zrotation Xrotation Yrotation
                                    JOINT RightHandIndex3
                                    {
                                        OFFSET -0.023422 0.000000 0.000000
                                        CHANNELS 3 Zrotation Xrotation Yrotation
                                        End Site
                                        {
                                            OFFSET -0.021944 0.000000 0.000000
                                        }
                                    }
                                }
                            }
                            JOINT RightHandMiddle1
                            {
                                OFFSET -0.084320 0.000000 0.010868
                                CHANNELS 3 Zrotation Xrotation Yrotation
                                JOINT RightHandMiddle2
                                {
                                    OFFSET -0.051529 0.000000 0.000000
                                    CHANNELS 3 Zrotation Xrotation Yrotation
                                    JOINT RightHandMiddle3
                                    {
                                        OFFSET -0.028107 0.000000 0.000000
                                        CHANNELS 3 Zrotation Xrotation Yrotation
                                        End Site
                                        {
                                            OFFSET -0.026333 0.000000 0.000000
                                        }
                                    }
                                }
                            }
                            JOINT RightHandRing1
                            {
                                OFFSET -0.079635 0.000000 -0.010868
                                CHANNELS 3 Zrotation Xrotation Yrotation
                                JOINT RightHandRing2
                                {
                                    OFFSET -0.046844 0.000000 0.000000
                                    CHANNELS 3 Zrotation Xrotation Yrotation
                                    JOINT RightHandRing3
                                    {
                                        OFFSET -0.023422 0.000000 0.000000
                                        CHANNELS 3 Zrotation Xrotation Yrotation
                                        End Site
                                        {
                                            OFFSET -0.021944 0.000000 0.000000
                                        }
                                    }
                                }
                            }
                            JOINT RightHandPinky1
                            {
                                OFFSET -0.074951 0.000000 -0.032791
                                CHANNELS 3 Zrotation Xrotation Yrotation
                                JOINT RightHandPinky2
                                {
                                    OFFSET -0.037475 0.000000 0.000000
                                    CHANNELS 3 Zrotation Xrotation Yrotation
                                    JOINT RightHandPinky3
                                    {
                                        OFFSET -0.018738 0.000000 0.000000
                                        CHANNELS 3 Zrotation Xrotation Yrotation
                                        End Site
                                        {
                                            OFFSET -0.017555 0.000000 0.000000
                                        }
                                    }
                                }
                            }
                        }
                    }
                }
            }
        }
    }
    JOINT LeftUpLeg
    {
        OFFSET 0.093688 0.000000 0.000000
        CHANNELS 3 Zrotation Xrotation Yrotation
        JOINT LeftLeg
        {
            OFFSET -0.000000 -0.377687 0.000000
            CHANNELS 3 Zrotation Xrotation Yrotation
            JOINT LeftFoot
            {
                OFFSET -0.000000 -0.399231 0.000000
                CHANNELS 3 Zrotation Xrotation Yrotation
                JOINT LeftToeBase
                {
                    OFFSET -0.000000 -0.060897 0.140533
                    CHANNELS 3 Zrotation Xrotation Yrotation
                    End Site
                    {
                        OFFSET -0.000000 0.000000 0.037475
                    }
                }
            }
        }
    }
    JOINT RightUpLeg
    {
        OFFSET -0.093688 0.000000 0.000000
        CHANNELS 3 Zrotation Xrotation Yrotation
        JOINT RightLeg
        {
            OFFSET -0.000000 -0.377687 0.000000
            CHANNELS 3 Zrotation Xrotation Yrotation
            JOINT RightFoot
            {
                OFFSET -0.000000 -0.399231 0.000000
                CHANNELS 3 Zrotation Xrotation Yrotation
                JOINT RightToeBase
                {
                    OFFSET -0.000000 -0.060897 0.140533
                    CHANNELS 3 Zrotation Xrotation Yrotation
                    End Site
                    {
                        OFFSET -0.000000 0.000000 0.037475
                    }
                }
            }
        }
    }
}
MOTION
Frames:    4
Frame Time:    0.040000
-0.200007    0.866055    0.105376    0.254733    3.764877    -3.192733    -0.773470    -14.430594    0.277618    -0.332696    2.421458    0.132419    8.439166    19.657082    0.682610    -11.637922    -4.918136    -1.171686    19.981052    -0.545487    -5.408408    -15.122552    5.251336    -8.452162    -14.236172    26.437113    9.896833    24.605049    -13.699858    14.980930    1.379349    48.306396    71.176941    -0.000000    0.000000    42.552197    -0.000000    0.000000    85.104385    0.000000    0.000000    0.000000    0.000000    0.000000    0.000000    0.000000    0.000000    0.000000    0.000000    0.000000    0.000000    0.000000    0.000000    0.000000    0.000000    0.000000    0.000000    0.000000    0.000000    0.000000    0.000000    0.000000    0.000000    0.000000    0.000000    0.000000    0.000000    0.000000    0.000000    0.000000    0.000000    0.000000    0.000000    0.000000    0.000000    -12.549162    -0.176590    -3.346591    12.993007    -3.001560    13.182820    7.673025    11.821478    -8.460605    -17.167519    -1.522279    11.248522    -0.740761    -0.449182    0.089194    0.000000    0.000000    0.000000    0.000000    0.000000    0.000000    0.000000    0.000000    0.000000    0.000000    0.000000    0.000000    0.000000    0.000000    0.000000    0.357309    -0.018043    -1.434458    0.715374    0.000000    -0.000000    0.357686    0.000000    -0.000000    0.714053    -0.045025    -2.868776    1.430749    0.000000    -0.000000    0.715376    0.000000    -0.000000    1.080783    -0.082154    -4.346354    2.167801    0.000000    -0.000000    1.083901    0.000000    -0.000000    10.396221    2.107498    1.048696    -4.195366    2.726597    7.738714    -3.161590    -13.274133    2.495963    1.204123    4.778779    -2.793227    -12.125361    6.925739    -0.827515    4.088792    -1.904571    -8.831753    98.780214    -6.804472    -7.333908    0.256682    6.589432    -1.193579    
-0.200073    0.865992    0.105506    0.244513    3.746485    -3.205795    -0.762057    -14.399120    0.318106    -0.331071    2.396410    0.144968    8.412234    19.462984    0.813875    -11.705075    -4.835434    -1.055947    20.031120    -0.550741    -5.392858    -15.157969    5.170889    -8.519056    -14.365438    26.672077    9.953501    24.784521    -13.813902    15.035596    1.243466    48.332291    71.286751    -0.000000    0.000000    42.590199    -0.000000    0.000000    85.180397    0.000000    0.000000    0.000000    0.000000    0.000000    0.000000    0.000000    0.000000    0.000000    0.000000    0.000000    0.000000    0.000000    0.000000    0.000000    0.000000    0.000000    0.000000    0.000000    0.000000    0.000000    0.000000    0.000000    0.000000    0.000000    0.000000    0.000000    0.000000    0.000000    0.000000    0.000000    0.000000    0.000000    0.000000    0.000000    0.000000    -12.547345    -0.156754    -3.411457    12.962419    -2.915894    13.079231    7.703053    12.032248    -8.663240    -17.251551    -2.325157    12.751684    -1.231450    -0.314601    -0.413881    0.000000    0.000000    -0.293754    0.000000    0.000000    -0.587508    0.000000    0.000000    0.000000    0.000000    0.000000    0.000000    0.000000    0.000000    0.000000    0.504536    -0.026052    -1.466648    1.010190    0.000000    -0.000000    0.505091    0.000000    -0.000000    1.008239    -0.065007    -2.933010    2.020380    0.000000    -0.000000    1.010193    0.000000    -0.000000    1.525989    -0.118609    -4.443390    3.061181    0.000000    -0.000000    1.530590    0.000000    -0.000000    10.408806    2.146297    0.991381    -4.197792    2.710563    7.700515    -3.136951    -13.274509    2.608019    1.211534    4.752749    -2.816323    -12.116840    6.880561    -0.815513    4.078392    -1.753661    -8.428695    98.793423    -6.964883    -7.719772    0.249722    6.537902    -1.169475    
-0.200104    0.865996    0.105560    0.242490    3.759778    -3.197851    -0.796911    -14.438268    0.296803    -0.273393    2.451934    0.138443    8.201029    19.455172    1.018727    -11.511473    -5.149560    -0.844564    20.048405    -0.561491    -5.351561    -15.204034    5.263829    -8.544157    -14.287653    26.628458    9.923630    24.649597    -13.827785    15.017781    1.284536    48.323627    71.251945    -0.000000    0.000000    42.578159    -0.000000    0.000000    85.156319    0.000000    0.000000    0.000000    0.000000    0.000000    0.000000    0.000000    0.000000    0.000000    0.000000    0.000000    0.000000    0.000000    0.000000    0.000000    0.000000    0.000000    0.000000    0.000000    0.000000    0.000000    0.000000    0.000000    0.000000    0.000000    0.000000    0.000000    0.000000    0.000000    0.000000    0.000000    0.000000    0.000000    0.000000    0.000000    0.000000    -12.509853    -0.209111    -3.369475    12.967507    -2.873310    13.052500    7.673807    12.022762    -8.658268    -17.655487    -2.129383    12.731521    -1.090840    -0.862537    0.388130    0.000000    0.000000    0.000000    0.000000    0.000000    0.000000    0.000000    0.000000    0.000000    0.000000    0.000000    0.000000    0.000000    0.000000    0.000000    0.774681    -0.039224    -1.438028    1.551013    0.000000    -0.000000    0.775507    0.000000    -0.000000    1.548135    -0.097873    -2.875394    3.102027    0.000000    -0.000000    1.551014    0.000000    -0.000000    2.343230    -0.178565    -4.355355    4.700041    0.000000    -0.000000    2.350020    0.000000    -0.000000    10.413529    2.146293    0.967219    -4.199131    2.686372    7.825288    -3.177331    -13.267775    2.500808    1.205388    4.774993    -2.797080    -12.115870    6.877266    -0.815276    4.099340    -1.766599    -8.482295    98.735913    -6.934604    -7.677547    0.251393    6.591097    -1.176108    
-0.200120    0.865982    0.105597    0.238192    3.801255    -3.171049    -0.868674    -14.420928    0.341102    -0.128585    2.338835    0.153023    8.234321    19.544693    0.968698    -11.759495    -5.576365    -0.977829    20.008429    -0.539052    -5.435830    -15.189543    5.183029    -8.572447    -14.261825    26.487665    9.882154    24.654596    -13.793783    14.855357    1.536957    48.422626    71.324600    -0.000000    0.000000    42.600201    -0.000000    0.000000    85.200409    0.000000    0.000000    0.000000    0.000000    0.000000    0.000000    0.000000    0.000000    0.000000    0.000000    0.000000    0.000000    0.000000    0.000000    0.000000    0.000000    0.000000    0.000000    0.000000    0.000000    0.000000    0.000000    0.000000    0.000000    0.000000    0.000000    0.000000    0.000000    0.000000    0.000000    0.000000    0.000000    0.000000    0.000000    0.000000    0.000000    -12.554908    -0.202765    -3.475488    12.998020    -2.916207    13.122733    7.760293    12.220450    -8.630480    -17.676231    -2.134910    12.250052    -1.034942    -0.894884    0.467709    0.000000    0.000000    0.000000    0.000000    0.000000    0.000000    0.000000    0.000000    0.000000    0.000000    0.000000    0.000000    0.000000    0.000000    0.000000    0.731308    -0.035296    -1.370901    1.464033    0.000000    -0.000000    0.732017    0.000000    -0.000000    1.461564    -0.088075    -2.741241    2.928067    0.000000    -0.000000    1.464033    0.000000    -0.000000    2.212406    -0.160697    -4.152287    4.436464    0.000000    -0.000000    2.218232    0.000000    -0.000000    10.417562    2.111567    0.961781    -4.190869    2.666238    7.846879    -3.176377    -13.258150    2.460204    1.193676    4.796344    -2.763291    -12.101090    6.861515    -0.832569    4.094579    -1.792358    -8.470330    98.726602    -6.926416    -7.705820    0.260924    6.566089    -1.207157    
